<svg class="icon" viewBox="0 0 1024 1024" xmlns="http://www.w3.org/2000/svg" width="200" height="200"><defs><style/></defs><path d="M1007.827 385.792a43.469 43.469 0 0 0-45.67-32.922 74.598 74.598 0 0 0-7.68.973 106.086 106.086 0 0 1-89.806-163.379 43.878 43.878 0 0 0-7.424-55.86 507.955 507.955 0 0 0-192.05-111.308 43.98 43.98 0 0 0-54.068 26.06 105.626 105.626 0 0 1-99.02 68.404 105.78 105.78 0 0 1-99.124-68.403 43.93 43.93 0 0 0-54.067-26.061 507.546 507.546 0 0 0-192 111.258 43.93 43.93 0 0 0-7.475 55.91 105.882 105.882 0 0 1 16.793 56.78A107.11 107.11 0 0 1 69.228 353.639q-3.635-.512-7.27-.768a43.418 43.418 0 0 0-45.67 32.922 503.347 503.347 0 0 0-5.12 232.448 43.776 43.776 0 0 0 47.41 34.56l6.452-.768a39.782 39.782 0 0 1 4.557-.512 106.7 106.7 0 0 1 106.598 106.598 105.216 105.216 0 0 1-22.477 64.615 43.93 43.93 0 0 0 4.352 58.521 513.894 513.894 0 0 0 201.165 119.45 43.827 43.827 0 0 0 53.965-25.907 106.086 106.086 0 0 1 197.939 0 43.878 43.878 0 0 0 53.914 25.907 513.894 513.894 0 0 0 201.164-119.45 43.878 43.878 0 0 0 4.352-58.521 105.165 105.165 0 0 1-22.63-64.666 106.394 106.394 0 0 1 65.075-98.201 90.01 90.01 0 0 1 46.08-7.834l6.451.768a43.725 43.725 0 0 0 47.412-34.56 502.426 502.426 0 0 0-5.12-232.448zm-74.855 179.2a194.56 194.56 0 0 0-172.8 193.178 190.31 190.31 0 0 0 18.995 82.995 425.984 425.984 0 0 1-106.342 63.488 193.946 193.946 0 0 0-321.485 0 428.237 428.237 0 0 1-106.342-63.488 190.003 190.003 0 0 0 18.995-82.995 194.56 194.56 0 0 0-172.8-193.178 407.757 407.757 0 0 1 3.174-124.877 194.56 194.56 0 0 0 169.677-192.87 192.051 192.051 0 0 0-13.056-69.12 418.202 418.202 0 0 1 100.045-58.675 193.843 193.843 0 0 0 322.15 0 419.174 419.174 0 0 1 100.045 58.675 191.898 191.898 0 0 0-12.953 69.12A194.56 194.56 0 0 0 929.95 440.064a411.034 411.034 0 0 1 6.503 71.68 430.438 430.438 0 0 1-3.533 53.146z"/><path d="M512.108 322.56A189.44 189.44 0 1 0 701.548 512a189.44 189.44 0 0 0-189.44-189.44zm0 286.72a97.28 97.28 0 1 1 97.28-97.28 97.28 97.28 0 0 1-97.28 97.28z"/></svg>